SP02DB_Propulsion_Synchrone_04.mot
version=1
nRows=21
nColumns=19
inDegrees=yes
endheader
time	rhf_vx	rhf_vy	rhf_vz	rhf_px	rhf_py	rhf_pz	rhtorque_x	rhtorque_y	rhtorque_z	lhf_vx	lhf_vy	lhf_vz	lhf_px	lhf_py	lhf_pz	lhtorque_x	lhtorque_y	lhtorque_z
0.0100	-0.725312	-0.893428	0.131604	-0.000000	-0.000000	-0.000000	0.154670	-0.384653	0.343635	-0.497399	0.128470	-2.797985	-0.000000	-0.000000	-0.000000	-1.388037	0.735045	0.769481	
0.0200	-0.952335	-0.631703	-0.006397	-0.000000	-0.000000	-0.000000	0.097689	-0.421495	0.353531	-1.090793	1.316774	-1.617475	-0.000000	-0.000000	-0.000000	-0.865317	0.832135	0.589116	
0.0300	-2.105723	0.477404	0.107815	-0.000000	-0.000000	-0.000000	-0.117398	-0.733256	0.580036	-1.284700	2.029310	-0.863172	-0.000000	-0.000000	-0.000000	-0.392788	0.834734	0.507257	
0.0400	-2.619424	1.639672	0.363767	-0.000000	-0.000000	-0.000000	-0.401377	-0.870091	0.661603	-1.828938	2.901848	0.230498	-0.000000	-0.000000	-0.000000	0.095125	0.948924	0.372387	
0.0500	-3.225948	2.607497	0.556062	-0.000000	-0.000000	-0.000000	-0.625574	-1.060036	0.727084	-2.148588	3.343845	1.527725	-0.000000	-0.000000	-0.000000	0.485474	1.052653	0.238506	
0.0600	-3.984546	3.698715	0.637751	-0.000000	-0.000000	-0.000000	-0.894380	-1.264810	0.812716	-2.537604	3.906446	2.091596	-0.000000	-0.000000	-0.000000	0.830663	1.133984	0.155757	
0.0700	-4.837141	4.887868	0.675583	-0.000000	-0.000000	-0.000000	-1.194411	-1.493590	0.898176	-2.917167	4.346739	2.435105	-0.000000	-0.000000	-0.000000	1.122825	1.214134	0.106181	
0.0800	-5.629998	6.019883	0.643561	-0.000000	-0.000000	-0.000000	-1.492644	-1.705805	0.967762	-3.333875	4.728726	2.661815	-0.000000	-0.000000	-0.000000	1.385791	1.309656	0.070023	
0.0900	-6.449170	7.056501	0.513729	-0.000000	-0.000000	-0.000000	-1.776448	-1.927409	0.998989	-3.815493	5.067393	2.798982	-0.000000	-0.000000	-0.000000	1.608463	1.429652	0.065426	
0.1000	-7.304601	8.086427	0.335523	-0.000000	-0.000000	-0.000000	-2.078823	-2.163536	1.044679	-4.406832	5.359977	2.777493	-0.000000	-0.000000	-0.000000	1.805906	1.583247	0.114362	
0.1100	-8.128431	9.063013	0.048105	-0.000000	-0.000000	-0.000000	-2.384048	-2.392740	1.090781	-5.108261	5.648817	2.682359	-0.000000	-0.000000	-0.000000	1.991348	1.772407	0.210090	
0.1200	-8.941672	9.977374	-0.257209	-0.000000	-0.000000	-0.000000	-2.690319	-2.621673	1.152716	-5.908486	5.987043	2.660572	-0.000000	-0.000000	-0.000000	2.195198	2.007520	0.341189	
0.1300	-9.862987	10.831725	-0.578692	-0.000000	-0.000000	-0.000000	-2.991494	-2.883771	1.210064	-6.833601	6.369985	2.677993	-0.000000	-0.000000	-0.000000	2.394746	2.276482	0.521780	
0.1400	-10.860383	11.616289	-0.936177	-0.000000	-0.000000	-0.000000	-3.290091	-3.164306	1.319106	-7.817407	6.813965	2.686620	-0.000000	-0.000000	-0.000000	2.624633	2.555528	0.743846	
0.1500	-11.836105	12.260080	-1.364894	-0.000000	-0.000000	-0.000000	-3.564947	-3.442906	1.459552	-8.843833	7.391156	2.698345	-0.000000	-0.000000	-0.000000	2.882754	2.834799	0.989703	
0.1600	-12.891511	12.842628	-1.793372	-0.000000	-0.000000	-0.000000	-3.839812	-3.751735	1.648204	-9.878589	8.000148	2.803142	-0.000000	-0.000000	-0.000000	3.146224	3.112925	1.272327	
0.1700	-14.010843	13.399462	-2.260006	-0.000000	-0.000000	-0.000000	-4.116619	-4.079810	1.871342	-10.928415	8.606935	2.922764	-0.000000	-0.000000	-0.000000	3.399062	3.384132	1.603328	
0.1800	-15.116569	13.994807	-2.710238	-0.000000	-0.000000	-0.000000	-4.419623	-4.393658	2.158316	-11.976068	9.200942	3.106168	-0.000000	-0.000000	-0.000000	3.651664	3.661136	1.964284	
0.1900	-16.212174	14.649060	-3.127979	-0.000000	-0.000000	-0.000000	-4.726016	-4.703389	2.457109	-12.944364	9.759521	3.275752	-0.000000	-0.000000	-0.000000	3.870362	3.914079	2.359520	
0.2000	-17.343751	15.188815	-3.488115	-0.000000	-0.000000	-0.000000	-4.991510	-5.007316	2.781830	-13.841080	10.244524	3.509091	-0.000000	-0.000000	-0.000000	4.067687	4.152446	2.789894	
0.2100	-18.406442	15.712334	-3.805159	-0.000000	-0.000000	-0.000000	-5.240571	-5.281390	3.118521	-14.707272	10.662098	3.679557	-0.000000	-0.000000	-0.000000	4.233290	4.381567	3.227620	
